<?xml version="1.0" encoding="utf-8"?>
<!-- Generator: Adobe Illustrator 24.3.0, SVG Export Plug-In . SVG Version: 6.00 Build 0)  -->
<svg version="1.1" id="Camada_1" xmlns="http://www.w3.org/2000/svg" xmlns:xlink="http://www.w3.org/1999/xlink" x="0px" y="0px"
	 viewBox="0 0 31.8 31.4" style="enable-background:new 0 0 31.8 31.4;" xml:space="preserve">
<style type="text/css">
	.st0{fill:#FFFFFF;}
</style>
<g>
	<g>
		<g>
			<path class="st0" d="M7.2,23.9c1.2,0,2.4-0.5,3.2-1.3l4.6-4.6c0.3-0.3,0.9-0.3,1.2,0l4.7,4.7c0.9,0.9,2,1.3,3.2,1.3h0.9l-5.9,5.9
				c-1.8,1.8-4.8,1.8-6.7,0l-5.9-5.9H7.2z"/>
			<path class="st0" d="M24.2,7.5c-1.2,0-2.4,0.5-3.2,1.3l-4.7,4.7c-0.3,0.3-0.9,0.3-1.2,0l-4.6-4.7C9.6,8,8.4,7.5,7.2,7.5H6.7
				l5.9-5.9c1.8-1.8,4.8-1.8,6.7,0l5.9,5.9H24.2z"/>
		</g>
		<path class="st0" d="M1.8,12.4l3.5-3.5l1.9,0c0.8,0,1.7,0.3,2.3,0.9l4.6,4.6c0.4,0.4,1,0.7,1.6,0.7c0.6,0,1.1-0.2,1.6-0.7l4.7-4.7
			c0.6-0.6,1.4-0.9,2.3-0.9l2.3,0l3.5,3.5c1.8,1.8,1.8,4.8,0,6.7l-3.5,3.5l-2.3,0c-0.8,0-1.7-0.3-2.3-0.9L17.3,17
			c-0.8-0.8-2.3-0.8-3.2,0l-4.6,4.6c-0.6,0.6-1.4,0.9-2.3,0.9l-1.9,0L1.8,19C-0.1,17.2-0.1,14.2,1.8,12.4z"/>
	</g>
</g>
</svg>
